<svg width="193" height="90" viewBox="0 0 193 90" fill="none" xmlns="http://www.w3.org/2000/svg">
<path d="M30.4189 36.6978H17.4535L18.3954 34.7031L11.8573 19.7984V32.8746L13.6303 36.6978H0L1.77305 32.8746V4.28417L0 0.46103H11.8573V17.8591C13.3533 15.9752 14.7939 13.2603 15.7358 10.379C16.8994 6.72212 17.2319 3.23142 16.567 0.571847V0.46103H30.1973C30.1973 0.46103 11.9681 18.3024 11.8573 18.3578V18.4686H22.3848L30.4189 36.6978Z" fill="white"/>
<path d="M43.3489 4.28417V32.8746L45.1219 36.6978H31.4916L33.2646 32.8746V4.28417L31.4916 0.46103H45.1219L43.3489 4.28417Z" fill="white"/>
<path d="M64.0247 0.46103H76.0482L74.2197 4.28417V36.6978H64.8558L49.674 5.33693C49.8403 9.04925 50.3389 12.6508 51.0038 16.1415C51.8349 20.0754 52.9431 23.8986 54.3283 27.3893C56.2122 32.1543 58.3177 35.4234 59.1488 36.5316L59.2596 36.6978H47.2915L49.0645 32.8746V4.11795L47.2915 0.46103H58.4285L73.6656 31.7665C73.3886 27.223 72.7237 22.7904 71.7264 18.6348C70.8953 15.0887 69.8425 11.7642 68.5127 8.6614C66.7397 4.4504 64.9112 1.56919 64.1909 0.627255L64.0247 0.46103Z" fill="white"/>
<path d="M91.2126 18.1916H108.389V32.7084C108.389 32.7084 100.355 35.5342 98.4711 36.1991C97.5291 36.5316 95.5899 37.0857 93.2073 37.1411C93.0411 37.1411 92.8749 37.1411 92.7086 37.1411C90.2707 37.1411 88.1098 36.587 86.1705 35.5342C82.4028 33.4841 79.7986 29.4394 78.4134 23.5107C77.0836 17.7483 78.0255 11.8197 80.9622 7.16539C83.2893 3.56388 86.6138 1.18133 90.3261 0.405622C96.3102 -0.868759 103.901 0.793479 106.893 6.33427L106.948 6.44508L94.8141 14.313V14.0914C94.5925 9.93578 94.3155 6.99916 93.9276 4.94907C93.4844 2.78816 92.9303 1.51378 92.1546 0.959701C91.6559 0.571847 91.1018 0.46103 90.3815 0.627255C89.0517 0.904294 88.1098 2.89898 87.6665 6.33427C87.2233 9.82496 87.3341 14.2576 88.0544 18.9673C88.7193 23.4553 90.3815 27.7771 92.6532 31.2124C93.6506 32.653 94.7033 33.872 95.7561 34.7031C96.698 35.4788 97.5845 35.9221 98.3048 35.9775V20.2971C97.5845 20.4633 96.8642 20.5741 96.2547 20.7403C94.0938 21.2944 93.4289 21.8485 93.4289 21.8485L93.3181 21.9593L91.2126 18.1916Z" fill="white"/>
<path d="M121.901 0.51644C120.848 0.627254 120.128 1.07052 119.851 1.79082C119.297 3.00979 119.907 4.94907 121.292 6.66672C122.511 8.27354 130.379 18.1916 130.489 18.3024C130.822 18.7456 131.21 19.1889 131.542 19.6322C134.036 22.735 136.196 25.3946 136.64 27.7771C137.083 29.9934 136.584 32.1543 135.255 33.8166C133.925 35.4234 131.044 37.3627 125.115 37.3627C123.009 37.3627 121.07 37.1411 119.131 36.6424C115.917 35.8667 113.036 34.4261 110.598 32.376V32.3206L113.036 18.4686L120.793 33.3733C122.622 36.7532 124.395 37.1411 125.115 37.1411C126.5 37.1411 127.553 36.6424 127.996 35.7559C128.661 34.3153 127.83 32.0989 125.724 29.384C125.669 29.3285 116.471 17.8037 116.25 17.5267C113.59 14.2022 111.485 11.598 111.485 8.93844C111.485 6.22345 112.482 4.11795 114.477 2.67735C116.194 1.40296 118.577 0.627254 121.846 0.294808C123.397 0.128583 125.669 0.073176 128.329 0.51644C130.489 0.904294 132.484 1.6246 134.313 2.62194L137.305 1.51378L136.806 4.28417L134.368 18.3578C134.368 18.3578 128.827 7.22079 126.722 3.95173C124.616 0.738072 123.065 0.405622 121.901 0.51644Z" fill="white"/>
<path d="M192.421 13.8152L182.614 25.4509L189.762 36.6987H177.849L175.799 33.5404C174.136 35.4243 170.535 37.1973 166.546 37.1973C166.269 37.1973 165.936 37.1973 165.659 37.1419C162.833 36.9757 158.844 35.8121 155.907 31.2133C154.079 28.3321 153.691 24.5089 154.91 20.6304C156.129 16.6964 158.844 13.4828 162.113 12.0422L154.744 0.461914H183.888L180.785 10.6016L180.675 10.3799C179.622 8.60687 178.237 6.94464 176.519 5.55944C175.189 4.39588 173.638 3.39853 171.92 2.56742C169.593 1.45926 167.543 0.905178 166.878 0.738957L182.448 25.1738C182.503 24.0103 182.78 13.8152 182.78 13.8152H192.421ZM174.691 33.5958C175.134 33.5958 175.466 33.5404 175.688 33.3188L162.224 12.2638C162.002 12.43 161.781 12.7625 161.614 13.2057C161.282 14.4247 161.282 16.364 161.725 18.3587C162.113 20.0763 162.944 22.7359 164.773 25.6171C166.601 28.4983 168.707 30.3822 170.147 31.4349C171.809 32.7093 173.527 33.485 174.691 33.5958Z" fill="white"/>
<path d="M23.6038 56.6134C26.5404 58.996 28.2026 62.3205 28.2026 65.8666C28.2026 69.4681 26.5404 72.7371 23.6038 75.1751C20.5563 77.613 16.4007 78.9982 11.8573 78.9982V85.1485L13.6303 88.9717H0L1.77305 85.1485V56.6134L0 52.7349H11.8573C16.4007 52.7903 20.5563 54.1201 23.6038 56.6134ZM17.4535 65.8666C17.4535 62.5975 16.7886 59.3284 15.5142 56.7243C14.9601 55.5607 14.2952 54.6188 13.6303 53.9539C13.0209 53.3444 12.4114 53.0119 11.8573 53.0119V78.7766C12.4114 78.7212 13.0209 78.3887 13.6303 77.7793C14.2952 77.1144 14.9601 76.1724 15.5142 75.0089C16.7886 72.4601 17.4535 69.191 17.4535 65.8666Z" fill="white"/>
<path d="M58.5181 88.9717H45.5526L46.4946 86.9216L41.5633 75.0089V88.9717H29.706L31.479 85.1485V56.6134L29.706 52.7349H41.5633C48.1014 52.7903 53.0881 54.5634 55.6923 57.7216C57.3545 59.7717 57.9086 62.265 57.3545 64.98C57.0221 66.5869 55.9693 68.1383 54.2517 69.4681C52.8665 70.5762 51.038 71.5736 48.8771 72.4047C46.3838 73.402 43.9458 74.0115 42.616 74.344H52.4232V74.3994L58.5181 88.9717ZM47.2703 63.5394C47.2703 59.4947 46.4946 56.558 44.8877 54.7296C43.558 53.2336 42.1173 53.0119 41.5633 53.0119V74.2886C42.5606 73.9561 47.2703 71.906 47.2703 63.5394Z" fill="white"/>
<path d="M72.0268 56.6134V85.2039L73.7998 89.0271H60.1695L61.9425 85.2039V56.6134L60.1695 52.7903H73.7998L72.0268 56.6134Z" fill="white"/>
<path d="M97.0798 79.109L97.1906 78.8874L100.293 89.0271H75.9694L77.7424 85.2039V56.6134L75.9694 52.7903H100.293L97.1906 62.9299L97.0798 62.7083C94.6973 58.6081 92.0931 56.1702 90.3755 54.8958C89.3227 54.0647 88.3808 53.566 87.8267 53.289V69.0802H96.9136L93.6445 74.7872L93.5337 74.6764C93.5337 74.6764 92.1485 73.3466 90.1538 71.9614C89.4889 71.5182 88.6578 71.0749 87.8267 70.6316V88.5284C88.3808 88.2513 89.3227 87.7527 90.3755 86.9216C92.0931 85.5918 94.6973 83.2092 97.0798 79.109Z" fill="white"/>
<path d="M113.244 52.8457C112.191 52.9565 111.471 53.3998 111.194 54.1201C110.64 55.3391 111.249 57.2783 112.634 58.996C113.853 60.6028 121.721 70.5208 121.832 70.6316C122.164 71.0749 122.552 71.5182 122.885 71.9614C125.378 75.0643 127.539 77.7238 127.982 80.1064C128.426 82.3227 127.927 84.4836 126.597 86.1458C125.267 87.7527 122.386 89.692 116.457 89.692C114.352 89.692 112.413 89.4703 110.473 88.9717C107.26 88.1959 104.379 86.7553 101.941 84.7052V84.6498L104.378 70.7979L112.136 85.7026C113.964 89.0825 115.737 89.4703 116.457 89.4703C117.843 89.4703 118.895 88.9716 119.339 88.0851C120.004 86.6445 119.172 84.4282 117.067 81.7132C117.012 81.6578 107.814 70.133 107.592 69.8559C104.933 66.5315 102.827 63.9273 102.827 61.2677C102.827 58.5527 103.824 56.4472 105.819 55.0066C107.537 53.7322 109.919 52.9565 113.188 52.6241C114.74 52.4579 117.012 52.4024 119.671 52.8457C121.832 53.2336 123.827 53.9539 125.655 54.9512L128.647 53.8431L128.148 56.6134L125.711 70.687C125.711 70.687 120.17 59.5501 118.064 56.281C115.959 53.0673 114.407 52.7349 113.244 52.8457Z" fill="white"/>
<path d="M162.919 69.2464L152.447 53.289V85.2039L154.22 89.0271H140.589L142.362 85.2039V53.289L131.89 69.2464L130.006 52.7903H164.803L162.919 69.2464Z" fill="white"/>
<path d="M177.417 52.8457C176.365 52.9565 175.644 53.3998 175.367 54.1201C174.813 55.3391 175.423 57.2783 176.808 58.996C178.027 60.6028 185.895 70.5208 186.006 70.6316C186.338 71.0749 186.726 71.5182 187.058 71.9614C189.552 75.0643 191.713 77.7238 192.156 80.1064C192.599 82.3227 192.1 84.4836 190.771 86.1458C189.441 87.7527 186.56 89.692 180.631 89.692C178.525 89.692 176.586 89.4703 174.647 88.9717C171.433 88.1959 168.552 86.7553 166.114 84.7052V84.6498L168.552 70.7979L176.309 85.7026C178.138 89.0825 179.911 89.4703 180.631 89.4703C182.016 89.4703 183.069 88.9716 183.512 88.0851C184.177 86.6445 183.346 84.4282 181.24 81.7132C181.185 81.6578 171.987 70.133 171.766 69.8559C169.106 66.5315 167.001 63.9273 167.001 61.2677C167.001 58.5527 167.998 56.4472 169.993 55.0066C171.71 53.7322 174.093 52.9565 177.362 52.6241C178.913 52.4579 181.185 52.4024 183.845 52.8457C186.006 53.2336 188 53.9539 189.829 54.9512L192.821 53.8431L192.322 56.6134L189.884 70.687C189.884 70.687 184.343 59.5501 182.238 56.281C180.132 53.0673 178.581 52.7349 177.417 52.8457Z" fill="white"/>
</svg>
